<svg width="155" height="35" viewBox="0 0 155 35" fill="none" xmlns="http://www.w3.org/2000/svg">
<mask id="mask0_44_853" style="mask-type:luminance" maskUnits="userSpaceOnUse" x="0" y="3" width="33" height="32">
<path d="M0 3.05566H32.1687V34.873H0V3.05566Z" fill="white"/>
</mask>
<g mask="url(#mask0_44_853)">
<path fill-rule="evenodd" clip-rule="evenodd" d="M16.9362 34.8655C17.7203 34.8655 19.4741 34.509 20.1805 34.3207C21.1688 34.0574 22.1106 33.6963 22.9326 33.283C23.796 32.8488 24.5132 32.4385 25.3144 31.8725C26.3811 31.1212 26.9522 30.5289 27.8132 29.674C27.9772 29.5116 28.1109 29.3396 28.2675 29.1675C30.1358 27.1083 31.3835 24.2784 31.8915 21.524L32.0953 19.8587C32.0953 18.5909 32.1421 18.4177 31.9986 17.1762C31.7392 14.924 30.9327 12.729 29.7785 10.8561C29.0029 9.59757 28.2768 8.73768 27.2576 7.7181C26.0579 6.51873 24.444 5.37388 22.7884 4.60446C21.8864 4.18572 21.004 3.84122 20.0146 3.59184C18.023 3.09075 16.4161 2.96238 14.3538 3.17619C12.6429 3.35328 10.7274 3.88182 9.23848 4.63152C5.89595 6.31458 3.3267 8.74116 1.63166 12.079C0.882727 13.5541 0.149651 15.8589 0.0580166 17.5845C0.0475772 17.7782 0.0081395 17.8315 0.00852614 17.9889C0.00929942 19.2176 -0.0428975 19.624 0.102094 20.8269C0.413342 23.4158 1.50329 26.1722 3.07268 28.2137C3.92291 29.3203 4.72442 30.2478 5.82365 31.1232C7.70969 32.6245 9.5505 33.6994 11.9577 34.3362C13.9582 34.8647 14.9156 34.8655 16.9362 34.8655ZM15.39 4.61837C16.0809 4.47184 18.127 4.74983 18.7344 4.8724C20.5505 5.23778 22.3488 5.96041 23.8227 6.95834C25.0089 7.76101 25.7571 8.40052 26.7275 9.45838C28.2196 11.0842 29.3235 13.0979 29.9359 15.2476C30.1787 16.0994 30.4324 17.3185 30.4273 18.3423C30.4238 18.9025 30.4776 19.5289 30.4204 20.0528C30.3628 20.5748 30.3005 21.1018 30.1911 21.6415C29.9873 22.6433 29.7267 23.5484 29.3501 24.3898C28.7972 25.6255 27.8592 27.3066 26.929 28.2837C25.5011 29.7827 24.4026 30.815 22.3944 31.8342C18.644 33.738 14.464 33.8366 10.6118 32.2483C8.89398 31.5404 6.57064 29.9752 5.35542 28.5064C5.19883 28.3169 5.08245 28.2005 4.93939 28.015C3.60508 26.299 2.7738 24.8901 2.1571 22.711C2.01637 22.2153 1.91739 21.7772 1.82459 21.2243C1.71092 20.54 1.73102 20.1471 1.66027 19.6198C1.42403 17.8571 2.07746 15.1509 2.74828 13.5545C3.26407 12.3284 4.26973 10.6415 5.17563 9.66407C7.58133 7.06854 10.2217 5.38664 13.7966 4.79352L15.39 4.61837Z" fill="#B4912F"/>
</g>
<path fill-rule="evenodd" clip-rule="evenodd" d="M124.92 19.5556C125.542 19.5533 126.452 19.302 126.951 19.1601C128.677 18.671 130.13 17.6093 131.064 16.1497C132.366 14.1148 132.722 11.0406 131.771 8.35572C131.349 7.16061 130.651 6.25934 129.833 5.49418C129.006 4.7205 127.836 4.16296 126.719 3.85829C124.746 3.31853 119.914 3.48634 117.591 3.48634V34.4615H119.159L119.152 19.6565H123.1C123.255 19.6933 127.668 26.7743 127.86 27.0743C128.803 28.5598 129.838 30.2734 130.795 31.719L131.972 33.573C132.707 34.7132 132.199 34.4615 134.286 34.4615C134.235 34.24 133.329 32.8925 133.13 32.5677C132.06 30.8228 125.051 19.8936 124.92 19.5556ZM119.159 5.00275L124.06 5.00314C124.715 5.00314 126.304 5.27688 126.923 5.52588C127.819 5.88739 128.349 6.23614 128.973 6.8598C130.848 8.73309 131.248 12.2392 130.141 14.6213C129.382 16.2521 128.249 17.187 126.523 17.7214C125.98 17.8892 124.979 18.0783 124.364 18.0906C124.113 18.096 123.767 18.1401 123.604 18.1401H119.159V5.00275Z" fill="#B4912F"/>
<mask id="mask1_44_853" style="mask-type:luminance" maskUnits="userSpaceOnUse" x="56" y="3" width="27" height="32">
<path d="M56.3201 3.05566H82.55V34.873H56.3201V3.05566Z" fill="white"/>
</mask>
<g mask="url(#mask1_44_853)">
<path fill-rule="evenodd" clip-rule="evenodd" d="M56.3997 18.2416L56.5686 21.3084C56.6475 21.8853 56.7646 22.4196 56.8903 22.9057C57.1513 23.9156 57.4645 24.784 57.8832 25.6995C58.6592 27.395 59.7646 28.9079 61.0108 30.1537C63.7602 32.9035 66.7261 34.2618 70.5841 34.7803C70.7182 34.798 70.7963 34.8104 71.004 34.8154C71.2232 34.8201 71.2905 34.8653 71.4579 34.8653H73.2268C73.4031 34.8653 73.6552 34.8236 73.8852 34.8154C74.9841 34.7772 77.2405 34.2629 78.2284 33.9536C78.9499 33.727 79.6667 33.4386 80.3402 33.1347C80.6337 33.0021 80.6592 32.7643 80.8634 32.1944C80.9542 31.9427 81.2403 31.326 81.2612 31.0754C80.4261 31.5147 78.4318 32.2605 77.5815 32.4987C76.4668 32.8111 75.6476 33.0075 74.4671 33.1734C73.2875 33.3392 71.7115 33.3671 70.5833 33.2136C67.0424 32.7318 63.6848 31.0789 61.4249 28.3233C60.9249 27.7136 60.7842 27.5504 60.2959 26.8285C57.0732 22.0647 57.2298 15.2896 60.5777 10.6966C63.0325 7.32856 66.314 5.31608 70.4777 4.73109C70.6672 4.70441 71.0434 4.65763 71.2553 4.64873C71.4034 4.64216 71.5623 4.65647 71.7107 4.64835C71.998 4.63249 71.9331 4.59847 72.4183 4.59847C72.7945 4.59847 73.6494 4.67773 74.0047 4.73109C76.678 5.1301 79.8264 6.29004 82.0129 7.88803C82.1807 8.00983 82.3434 8.13471 82.524 8.23679L82.1238 7.2203C81.98 6.85454 81.8427 6.55141 81.6947 6.18564C81.62 6.00431 81.5791 5.83341 81.4437 5.72786C81.2288 5.56005 80.2985 5.09801 80.0313 4.96887C77.0484 3.5236 73.8636 2.77506 70.3927 3.17871C67.2017 3.54989 64.6417 4.74462 62.243 6.65077C61.2022 7.47819 60.1702 8.58399 59.4193 9.6403C58.5668 10.8377 57.9458 11.9675 57.3891 13.4197C57.12 14.1223 56.8973 14.8898 56.7438 15.6526C56.6606 16.0683 56.598 16.4619 56.5361 16.9119L56.3997 18.2416Z" fill="#B4912F"/>
</g>
<path fill-rule="evenodd" clip-rule="evenodd" d="M85.4042 34.4441C85.5963 34.4441 85.6478 34.1905 85.7042 34.0517L90.2159 23.8087C90.3609 23.4596 90.4943 23.206 90.6355 22.8673L97.8962 6.37614C98.013 6.09389 99.0461 3.65262 99.1985 3.5374L101.726 9.34827C102.007 9.94331 102.319 10.6644 102.581 11.2718C103.684 13.8399 104.865 16.4374 105.973 18.997L112.336 33.4505C112.45 33.6906 112.681 34.1495 112.741 34.4117H114.308C114.24 34.1151 111.37 27.7146 111.004 26.8516C109.946 24.3585 108.753 21.8295 107.7 19.3403L105.8 15.0281C105.206 13.698 104.52 12.0262 103.916 10.7456C103.734 10.3609 103.607 10.0411 103.441 9.6541L99.6547 1.06095C99.5797 0.886187 99.4985 0.712971 99.4204 0.534728C99.3411 0.351846 99.2352 0.152338 99.1996 0H99.0975C99.0828 0.187909 97.3526 4.04275 97.225 4.34201C96.9207 5.04957 96.5704 5.77646 96.2634 6.51147L94.3631 10.828C93.6145 12.5822 92.7129 14.4655 91.9972 16.1926L84.9054 32.296C84.8141 32.5013 83.9832 34.2497 84.02 34.4333L85.4042 34.4441Z" fill="#B4912F"/>
<mask id="mask2_44_853" style="mask-type:luminance" maskUnits="userSpaceOnUse" x="136" y="3" width="19" height="32">
<path d="M136.594 3.05566H155V34.873H136.594V3.05566Z" fill="white"/>
</mask>
<g mask="url(#mask2_44_853)">
<path fill-rule="evenodd" clip-rule="evenodd" d="M139.825 10.1062C139.825 9.32091 140.088 8.43782 140.362 7.86172C141.677 5.09142 144.678 4.17275 147.536 4.77128C148.985 5.07441 150.547 5.89718 151.681 6.78956C151.903 6.96316 152.867 7.78014 153.064 7.83233C152.926 7.54429 152.795 7.12478 152.677 6.80232L152.098 5.31142L151.749 5.00481C150.942 4.39121 150.052 3.91022 149.042 3.56766C147.626 3.08783 146.937 3.08203 145.535 3.08203C143.653 3.08203 141.855 3.90365 140.522 5.04193C139.996 5.48966 139.361 6.34492 139.017 7.02502C138.825 7.40587 138.659 7.82151 138.536 8.2588C138.154 9.60278 138.105 11.2205 138.609 12.5351C138.973 13.4858 139.367 14.0851 140.013 14.8217C140.869 15.7972 142.001 16.5612 143.129 17.2115C143.542 17.4493 143.927 17.6395 144.322 17.8371C146.225 18.7887 148.555 19.8465 150.26 21.0961C151.598 22.0755 152.945 23.4384 153.277 25.4068C153.643 27.5786 152.58 29.7666 151.51 30.8361C150.153 32.192 148.627 32.9978 146.601 33.2545C142.854 33.7301 139.85 32.013 137.99 29.2211C137.828 28.9756 137.402 28.2556 137.248 28.1447C136.633 29.8795 136.44 29.6081 136.837 30.226C136.965 30.4224 137.099 30.6087 137.231 30.7924C137.868 31.6913 138.856 32.6189 139.764 33.207C140.369 33.5994 141.019 33.9327 141.712 34.1929C142.585 34.52 143.181 34.6573 144.109 34.7775C145.33 34.9357 145.316 34.8591 146.392 34.8146L147.792 34.5974C150.429 34.0166 152.784 32.4813 154.06 30.0991C154.984 28.3708 155.315 26.1264 154.65 24.1835C152.37 17.512 142.434 17.3403 140.206 12.3031C139.835 11.4629 139.825 10.9699 139.825 10.1062Z" fill="#B4912F"/>
</g>
<mask id="mask3_44_853" style="mask-type:luminance" maskUnits="userSpaceOnUse" x="34" y="3" width="19" height="32">
<path d="M34.1484 3.05566H52.6578V34.873H34.1484V3.05566Z" fill="white"/>
</mask>
<g mask="url(#mask3_44_853)">
<path fill-rule="evenodd" clip-rule="evenodd" d="M52.5605 26.0735C52.5605 25.7726 52.446 25.1625 52.3876 24.881C51.9202 22.6261 50.2893 20.8561 48.4674 19.6053C47.0999 18.6669 46.4581 18.4191 45.075 17.6906C41.6776 15.902 36.9698 14.3984 37.4079 9.65734C37.5997 7.58725 39.0125 5.85238 40.7574 5.12472C41.8887 4.65301 42.5526 4.5985 43.7171 4.5985C47.2 4.59811 50.2158 7.69474 50.5897 7.83238L49.8466 5.79593C49.6309 5.2469 49.7364 5.34163 49.2836 4.99481C48.4442 4.35259 47.5944 3.90988 46.5667 3.56809C46.2083 3.44939 45.8966 3.35041 45.4988 3.27115C43.9696 2.96725 42.7799 2.9889 41.2554 3.35041C38.7012 3.95512 36.7085 5.92623 36.0175 8.52061C35.6939 9.73351 35.6958 11.0887 36.0798 12.2857C36.9408 14.9667 39.4482 16.685 41.8887 17.8488C44.4545 19.0725 48.2761 20.8139 49.8644 23.1114C51.2575 25.127 51.184 27.3633 50.0523 29.4751C48.8777 31.669 46.3092 33.1111 43.866 33.2963C42.5638 33.3946 41.3895 33.2944 40.1449 32.8819C39.0782 32.5273 37.8162 31.778 37.0348 30.9869C36.4575 30.4035 35.0324 28.7347 34.875 28.1447H34.7733C34.7528 28.3867 34.3519 29.3031 34.2382 29.5822C34.1118 29.895 34.2734 30.0331 34.4199 30.2662C36.0314 32.8219 38.5814 34.3267 41.5883 34.7718C42.4053 34.892 42.5843 34.8653 43.3637 34.8653C43.5366 34.8653 43.6522 34.8197 43.8683 34.8155C44.751 34.7985 46.2017 34.4168 46.9576 34.1133C48.9399 33.3153 50.5828 31.9798 51.6023 30.1166C51.8672 29.6321 52.0733 29.1728 52.243 28.5893C52.5102 27.6722 52.5605 26.9933 52.5605 26.0735Z" fill="#B4912F"/>
</g>
<path fill-rule="evenodd" clip-rule="evenodd" d="M99.7054 18.2922C99.7054 18.2539 100.452 16.321 99.1482 16.321C97.8444 16.3214 98.5926 18.2887 98.5926 18.2922C98.5922 19.1482 97.0762 18.753 97.0762 19.8588C97.0762 20.8587 97.0754 20.7427 97.3526 21.8578C97.4679 22.3221 97.5394 22.6976 98.0362 22.7393C98.0362 23.0803 97.885 23.4469 97.885 23.7999C97.885 24.4939 97.8557 24.8446 98.0165 25.5382C98.0637 25.7432 98.238 26.3084 98.238 26.4778C98.238 26.8633 98.1878 26.963 98.1878 27.0342V27.9938C98.1878 28.5065 98.4909 29.2017 98.4909 30.5708C98.4909 31.6897 97.0657 30.7285 96.6721 31.7771L95.3081 31.7833L95.216 31.9426C95.1839 32.0103 95.1716 32.0478 95.1403 32.1205C94.9825 32.4866 94.1941 34.2199 94.2142 34.4376C97.2912 34.5088 100.92 34.4268 104.083 34.4442C104.096 34.2311 103.679 33.3511 103.562 33.0805C103.455 32.84 103.077 31.8177 102.938 31.7833H101.675C101.299 31.4079 101.484 31.259 100.716 31.2258C100.237 31.2057 99.8051 31.1214 99.8051 30.6214C99.8051 29.5818 99.7777 30.016 99.9547 28.9527C100.15 27.7815 100.108 28.3252 100.108 27.1351C100.108 26.9947 100.059 26.9518 100.059 26.8316C100.059 25.9388 100.412 25.3411 100.412 24.7599C100.412 24.2499 100.423 23.2338 100.229 22.8093C100.39 22.6717 100.612 22.6616 100.743 22.4621C100.842 22.3129 100.899 22.0051 100.948 21.8091C101.203 20.7891 101.221 20.8104 101.221 19.8588C101.221 18.7584 99.7034 19.1578 99.7054 18.2922Z" fill="#B4912F"/>
</svg>
