<?xml version="1.0" standalone="no"?>
<!DOCTYPE svg PUBLIC "-//W3C//DTD SVG 20010904//EN"
 "http://www.w3.org/TR/2001/REC-SVG-20010904/DTD/svg10.dtd">
<svg version="1.0" xmlns="http://www.w3.org/2000/svg"
 width="64.000000pt" height="64.000000pt" viewBox="0 0 64.000000 64.000000"
 preserveAspectRatio="xMidYMid meet">

<g transform="translate(0.000000,64.000000) scale(0.100000,-0.100000)"
fill="#000000" stroke="none">
<path d="M25 615 c-24 -23 -25 -29 -25 -168 0 -98 4 -147 12 -155 7 -7 38 -12
70 -12 l58 0 0 -115 c0 -110 1 -117 25 -140 19 -20 34 -25 73 -25 59 0 87 20
100 70 l8 35 112 3 c102 2 112 1 121 -17 13 -24 0 -65 -26 -80 -16 -9 -14 -10
10 -11 17 0 38 10 53 25 21 21 25 33 22 73 l-3 47 -67 3 -68 3 0 224 c0 212
-1 226 -20 245 -11 11 -32 20 -47 20 l-26 0 21 -23 c25 -26 31 -104 10 -125
-13 -13 -192 -17 -222 -6 -12 4 -16 20 -16 56 0 69 -30 98 -100 98 -41 0 -56
-5 -75 -25z m99 -7 c26 -37 20 -48 -24 -48 -26 0 -40 5 -40 13 0 16 28 57 40
57 5 0 16 -10 24 -22z m16 -196 l0 -89 -37 6 -38 6 -3 60 c-5 90 2 105 43 105
l35 0 0 -88z m298 6 c17 -17 16 -142 -2 -157 -9 -8 -51 -11 -122 -9 l-109 3
-3 74 c-2 41 -1 80 2 88 7 18 216 19 234 1z m0 -230 c28 -28 13 -37 -70 -40
l-83 -3 -6 -53 c-10 -76 -44 -108 -69 -63 -15 29 -13 158 3 164 27 11 213 7
225 -5z"/>
</g>
</svg>
